<svg xmlns="http://www.w3.org/2000/svg" width="30" height="30" viewBox="0 0 1.2 1.2" xml:space="preserve"><g fill="#fff"><path d="M.6-.001a.6.6 0 1 0 0 1.202.6.6 0 0 0 0-1.202m0 1.162A.562.562 0 0 1 .6.039a.562.562 0 0 1 0 1.122"/><path d="M.731.263h-.1C.504.261.487.34.487.425v.062H.431a.017.017 0 0 0-.019.019v.112a.017.017 0 0 0 .019.019h.056v.281a.017.017 0 0 0 .019.019h.115C.632.938.641.929.638.918L.637.637h.094A.017.017 0 0 0 .75.618V.506A.017.017 0 0 0 .731.487H.637V.431C.641.407.641.411.663.412H.73q.008 0 .015-.004C.752.404.751.399.75.394V.282A.017.017 0 0 0 .731.263m-.02.11L.664.371C.606.371.601.403.601.435v.071a.02.02 0 0 0 .02.02h.092v.072H.622a.02.02 0 0 0-.02.02L.601.9H.525V.619Q.524.601.506.599H.45V.527h.056A.02.02 0 0 0 .52.521Q.525.515.524.507V.426C.524.342.541.302.63.302h.08v.072z"/></g></svg>