<svg width="25px" height="25px" viewBox="0 0 3.125 3.125" xmlns="http://www.w3.org/2000/svg" xmlns:xlink="http://www.w3.org/1999/xlink" aria-hidden="true" role="img" class="iconify iconify--gis" preserveAspectRatio="xMidYMid meet"><path d="M1.344 0v0.411C0.873 0.501 0.501 0.873 0.411 1.344H0v0.438h0.411C0.501 2.252 0.873 2.624 1.344 2.714V3.125h0.438V2.714C2.252 2.624 2.624 2.252 2.714 1.781H3.125V1.344H2.714C2.624 0.873 2.252 0.501 1.781 0.411V0zm0.219 0.703A0.857 0.857 0 0 1 2.422 1.563 0.857 0.857 0 0 1 1.563 2.422 0.857 0.857 0 0 1 0.703 1.563 0.857 0.857 0 0 1 1.563 0.703" fill="#000000"/></svg>