<svg xmlns="http://www.w3.org/2000/svg" viewBox="0 0 50 50" xml:space="preserve" width="20" height="20"><path style="fill:#32bbff" d="M37.341 17.151A75776.711 75776.711 0 0 1 7.75 0.589C6.775 -0.055 5.653 -0.14 4.684 0.188l24.81 24.81z"/><path style="fill:#32bbff" d="M4.684 0.188c-0.182 0.062 -0.358 0.136 -0.527 0.225C3.086 0.993 2.3 2.107 2.3 3.516v42.965c0 1.409 0.786 2.523 1.857 3.102a3.613 3.613 0 0 0 0.527 0.226L29.493 24.998z"/><path style="fill:#32bbff" d="M29.493 24.998 4.683 49.808c0.969 0.33 2.091 0.253 3.066 -0.401 14.023 -7.853 23.241 -13.007 29.116 -16.284l0.482 -0.271z"/><path style="fill:#2c9fd9" d="M2.3 24.998v21.482c0 1.409 0.786 2.523 1.857 3.102a3.613 3.613 0 0 0 0.527 0.226L29.493 24.998z"/><path style="fill:#29cc5e" d="M7.75 0.589C6.592 -0.176 5.227 -0.154 4.156 0.414l24.96 24.961 8.224 -8.224A76758.841 76758.841 0 0 1 7.75 0.589"/><path style="fill:#d93f21" d="M29.117 24.622 4.156 49.582c1.07 0.568 2.435 0.601 3.593 -0.175 14.023 -7.853 23.241 -13.007 29.116 -16.284l0.482 -0.271z"/><path style="fill:#ffd500" d="M47.7 24.998c0 -1.19 -0.601 -2.392 -1.791 -3.058 0 0 -2.226 -1.242 -9.051 -5.059l-8.117 8.117 8.125 8.126c6.75 -3.79 9.043 -5.068 9.043 -5.068 1.191 -0.666 1.791 -1.867 1.791 -3.058"/><path style="fill:#fa0" d="M45.909 28.056c1.191 -0.666 1.791 -1.868 1.791 -3.058H28.741l8.125 8.126c6.75 -3.79 9.043 -5.067 9.043 -5.067"/></svg>