<svg width="56" height="56" viewBox="0 0 56 56" fill="none" xmlns="http://www.w3.org/2000/svg"><rect width="56" height="56" rx="28" fill="#FFEFD6"/><g clip-path="url(#a)"><path d="M43.463 24.97a10 10 0 0 1-.262-.676c-.386-1.055-1.126-.94-1.126-.94s.15.248-.1.888c-.076.438-2.622 3.691-3.083 2.853a.4.4 0 0 1-.04-.233c.144-1.224.193-2.477.147-3.74-.206-5.842-2.386-11.939-6.139-16.73l-.031-.038-.178-.224q-.24-.3-.489-.59c-.429-.505-.647-.078-1.114-.549a.262.262 0 0 0-.444.152c-.543 4.796-1.685 6.639-2.918 8.128-1.564 1.645-3.94 3.578-4.917 6.163-.483 1.06-1.305 2.08-1.556 3.121-.041.215-.332.235-.448.108-.965-.945-1.684-2.8-1.971-4.449-.098-.558-.454-.121-.445-.588-.002-.15-.187-.225-.296-.118-5.015 4.9-6.58 11.714-5.669 18.865.149 1.187.195 2.38.502 3.5 1.015 3.881 3.759 6.89 6.923 9.073 2.852 1.967 5.978 3.323 9.66 2.993h-.004c8.107-.592 14.212-6.463 15.354-14.381.809-4.992-.293-9.603-1.356-12.587" fill="#F9AF38"/><path d="M29.096 51.968c-7.63.493-14.788-4.817-16.686-12.077a26 26 0 0 1-.73-3.564c-.91-7.15 1.668-14.888 6.683-19.79.11-.106.294-.032.296.119-.009.467.04 1 .137 1.558-3.998 4.884-5.963 11.732-5.15 18.113.148 1.188.422 2.443.729 3.564 1.734 6.632 7.86 11.638 14.72 12.077m9.983-24.721.026.002h-.027zM22.77 18.368q-.225.431-.42.86v-.002q.193-.428.42-.858" fill="#F48931"/><path d="M37.864 33.653c-.217-.54-.276-.701-.41-.97-.047-.096-.191-.077-.212.027-.072.352-.089.595-.273 1.066-.288.754-.892 1.42-1.479 1.965a.17.17 0 0 1-.247-.016.22.22 0 0 1-.038-.126c.553-4.523-.912-9.636-3.916-13.47l-.02-.026-.04-.049c-.4-.505-.722-.771-1.174-1.226a.171.171 0 0 0-.291.099c-.355 3.141-.925 4.8-1.733 5.775-.787.95-1.594 1.215-2.496 2.57-.825 1.24-1.268 2.352-1.518 3.37-.032.132-.56.245-.65.142a5.1 5.1 0 0 1-.822-1.289 6 6 0 0 1-.378-1.124c-.141-.606-.343-.711-.347-1.087-.001-.099-.122-.147-.194-.077-3.498 3.418-4.532 8.357-3.578 13.28 1.328 6.858 6.666 9.523 10.535 9.464.169-.003.385.03.61.014 2.39-.183 7.665-1.385 9.6-7.94 1.108-3.751.277-7.363-.52-9.622-.103-.29-.409-.75-.409-.75" fill="#DF646E"/><path d="m24.357 30.635-.341.87q.145-.425.34-.87m4.904 21.324c-.25.027-.488.02-.665.033-3.87.04-9.71-2.496-11.037-9.353-.954-4.924.734-10.449 4.232-13.866.072-.07.192-.023.193.077.004.376.04.914.181 1.52-2.535 3.398-3.654 8.054-2.837 12.27 1.204 6.218 6.14 8.906 9.932 9.319" fill="#DC4955"/><path d="M26.269 47.024a.8.8 0 0 1-.292-.06.72.72 0 0 1-.384-.952l4.193-9.53a.74.74 0 0 1 .968-.377.72.72 0 0 1 .384.952l-4.193 9.53a.74.74 0 0 1-.676.436m-1.66-5.912h-.026c-1.402-.015-2.53-1.277-2.512-2.814.016-1.527 1.157-2.76 2.548-2.76h.025c.7.007 1.349.318 1.826.875.45.526.694 1.215.686 1.939a2.92 2.92 0 0 1-.728 1.924c-.484.54-1.129.836-1.82.836m.01-4.126c-.585 0-1.067.593-1.075 1.328-.008.738.465 1.344 1.055 1.35.265.006.52-.12.722-.345a1.5 1.5 0 0 0 .362-.983 1.5 1.5 0 0 0-.34-.99c-.197-.229-.45-.357-.715-.36zm7.361 10.751h-.025c-1.402-.015-2.53-1.278-2.512-2.815.017-1.527 1.157-2.76 2.548-2.76h.025c1.402.015 2.53 1.277 2.513 2.814-.017 1.528-1.158 2.76-2.55 2.76m.011-4.126c-.585 0-1.067.593-1.075 1.327-.008.738.465 1.344 1.055 1.35.586.009 1.076-.59 1.084-1.327.008-.739-.465-1.344-1.055-1.35zm1.8 1.358h.002z" fill="#F5FCFF"/><path d="M22.97 8.18c-.338 1.765-1.503 2.669-2.01 3.07a.198.198 0 0 1-.293-.055c-.325-.555-1.095-1.782-.757-3.545.077-.4.039-.848.205-1.193.569-1.179 1.523-2.013 1.916-2.323a.198.198 0 0 1 .293.055c.255.437.85 1.586.927 2.916.02.358-.209.7-.28 1.075" fill="#DF646E"/><path d="M23.182 8.21c-.337 1.764-1.784 3.04-2.292 3.44a.198.198 0 0 1-.292-.053c-.325-.555-1.198-2.259-.86-4.022.084-.436.236-.841.424-1.211.076 1.329.671 2.478.927 2.915.06.103.198.129.293.054.382-.3 1.296-1.1 1.868-2.228.022.359.004.73-.068 1.104" fill="#DC4955"/><path d="M44.753 13.773c.353 1.597-.47 2.845-.786 3.352a.2.2 0 0 1-.276.06c-.502-.335-1.712-1.091-2.065-2.69-.059-.265-.241-.55-.24-.811.005-1.306.658-2.486.921-2.91a.2.2 0 0 1 .276-.058c.383.254 1.33.953 1.915 1.98.182.32.171.697.255 1.077" fill="#DF646E"/><path d="M44.072 17.45a.2.2 0 0 1-.276.06c-.502-.335-1.974-1.434-2.328-3.033a3.6 3.6 0 0 1-.077-.976c.585 1.027 1.53 1.726 1.914 1.98a.2.2 0 0 0 .276-.058c.25-.403.856-1.494.916-2.727.182.32.33.67.414 1.051.353 1.598-.523 3.196-.839 3.704m-12.843 4.603c-.43 2.299-1.184 3.64-1.868 4.465-.787.95-1.515 1.258-2.418 2.614-.432.65-.824 1.632-1.107 2.422a1.96 1.96 0 0 1-1.846 1.285l-.496.002c.336-.15.299-.939.523-1.337.293-.797.674-1.668 1.158-2.372.903-1.356 1.631-1.664 2.418-2.614.808-.975 1.711-2.667 2.067-5.808.016-.14.19-.2.29-.1a17 17 0 0 1 1.279 1.443m7.041 12.349-.037.065c-.494.827-1.413 1.32-2.39 1.32h-.454v-.002a.16.16 0 0 0 .1-.045c.587-.545 1.065-1.32 1.353-2.075.151-.388.255-.756.328-1.07v-.002l.041-.19c.022-.105.165-.124.212-.029a18 18 0 0 1 .847 2.028" fill="#DC4955"/><path d="M39.104 27.249h-.027l.001-.002zM30.375 4.228c-.543 4.796-1.923 7.38-3.157 8.869-1.563 1.645-3.892 3.545-4.869 6.131l-.001-.002a18 18 0 0 0-.618 1.57l-.001-.002q-.04.125-.084.25l.001.001a20 20 0 0 0-.433 1.51c-.021.119-.12.179-.224.186v.001h.69a1.96 1.96 0 0 0 1.882-1.374c.227-.743.512-1.615.752-2.142v.002c.978-2.586 3.307-4.486 4.87-6.132 1.116-1.347 2.353-3.589 2.98-7.556a26 26 0 0 0-1.344-1.464.262.262 0 0 0-.444.152" fill="#F48931"/><path d="M41.905 22.083c-.126.62-.314 1.288-.564 1.928a2 2 0 0 1-.155.396l-.03.061-.011.024a10 10 0 0 1-.154.303c-.507.964-1.43 2.424-1.903 2.43l-.014.024.098-.001a3.95 3.95 0 0 0 3.089-1.539c.405-.53.79-1.076.94-1.415-.386-1.055-1.026-2.812-1.296-2.211" fill="#F48931"/></g><defs><clipPath id="a"><path fill="#fff" d="M4 4h48v48H4z"/></clipPath></defs></svg>