<svg fill="#fff" width="30" height="30" viewBox="-0.075 -0.075 0.9 0.9" xmlns="http://www.w3.org/2000/svg" preserveAspectRatio="xMinYMin" class="jam jam-instagram"><path d="M0.526 0h-0.303A0.223 0.223 0 0 0 0 0.223v0.303a0.223 0.223 0 0 0 0.223 0.223h0.303a0.223 0.223 0 0 0 0.223 -0.223v-0.303A0.223 0.223 0 0 0 0.526 0m0.148 0.526a0.148 0.148 0 0 1 -0.148 0.148h-0.303a0.148 0.148 0 0 1 -0.148 -0.148v-0.303a0.148 0.148 0 0 1 0.148 -0.148h0.303a0.148 0.148 0 0 1 0.148 0.148v0.303z"/><path d="M0.374 0.181A0.194 0.194 0 0 0 0.181 0.374a0.194 0.194 0 0 0 0.194 0.194 0.194 0.194 0 0 0 0.194 -0.194A0.194 0.194 0 0 0 0.374 0.181zm0 0.312a0.118 0.118 0 1 1 0 -0.237 0.118 0.118 0 0 1 0 0.237"/><path cx="15.156" cy="4.858" r="1.237" d="M0.615 0.182A0.046 0.046 0 0 1 0.568 0.229A0.046 0.046 0 0 1 0.522 0.182A0.046 0.046 0 0 1 0.615 0.182z"/></svg>