<svg xmlns="http://www.w3.org/2000/svg" width="30" height="30" viewBox="0 0 1.2 1.2" xml:space="preserve"><g fill="#fff"><path d="M.6-.001a.6.6 0 1 0 0 1.202.6.6 0 0 0 0-1.202m0 1.162A.562.562 0 0 1 .6.039a.562.562 0 0 1 0 1.122"/><path d="M.93.414.94.39A.02.02 0 0 0 .911.367a.2.2 0 0 1-.062.025.14.14 0 0 0-.096-.037.143.143 0 0 0-.143.149.33.33 0 0 1-.215-.119.02.02 0 0 0-.033.003.14.14 0 0 0-.002.14L.352.531a.02.02 0 0 0-.01.018c0 .043.019.082.049.108L.39.658a.02.02 0 0 0-.004.019.14.14 0 0 0 .082.089.23.23 0 0 1-.128.022.02.02 0 0 0-.021.013.02.02 0 0 0 .008.024.37.37 0 0 0 .199.058c.232 0 .37-.188.37-.37V.507A.3.3 0 0 0 .954.445.02.02 0 0 0 .93.415M.865.481a.02.02 0 0 0-.008.017v.015c0 .162-.123.33-.33.33A.3.3 0 0 1 .419.825.3.3 0 0 0 .533.773.02.02 0 0 0 .521.737.1.1 0 0 1 .439.693Q.453.692.467.688A.02.02 0 0 0 .466.649.1.1 0 0 1 .388.578q.015.004.03.004t.02-.014C.444.554.438.55.43.545a.1.1 0 0 1-.043-.11.37.37 0 0 0 .246.111q.01 0 .016-.007.008-.01.004-.017A.103.103 0 0 1 .829.428a.02.02 0 0 0 .019.006L.866.43.858.436a.02.02 0 0 0 .013.037L.878.472.866.481"/></g></svg>